<svg version="1.1" viewBox="0.0 0.0 960.0 720.0" fill="none" stroke="none" stroke-linecap="square" stroke-miterlimit="10" xmlns:xlink="http://www.w3.org/1999/xlink" xmlns="http://www.w3.org/2000/svg"><clipPath id="p.0"><path d="m0 0l960.0 0l0 720.0l-960.0 0l0 -720.0z" clip-rule="nonzero"/></clipPath><g clip-path="url(#p.0)"><path fill="#000000" fill-opacity="0.0" d="m0 0l960.0 0l0 720.0l-960.0 0z" fill-rule="evenodd"/><path fill="#000000" fill-opacity="0.0" d="m99.64829 211.92914c16.322937 51.1463 26.007439 104.95029 28.07087 158.59842c1.0252533 26.656189 -2.3400803 26.673859 -1.4041977 53.333344c0.47357178 13.490356 2.4657059 13.281494 4.212593 26.666656c0.36309814 2.782196 -2.627098 4.6263123 0 5.6115417c28.269608 10.601929 58.766556 -13.969635 88.41995 -19.648285c20.85971 -3.9946594 42.207 -4.932556 63.15747 -8.419952" fill-rule="evenodd"/><path stroke="#000000" stroke-width="16.0" stroke-linejoin="round" stroke-linecap="butt" d="m99.64829 211.92914c16.322937 51.1463 26.007439 104.95029 28.07087 158.59842c1.0252533 26.656189 -2.3400803 26.673859 -1.4041977 53.333344c0.47357178 13.490356 2.4657059 13.281494 4.212593 26.666656c0.36309814 2.782196 -2.627098 4.6263123 0 5.6115417c28.269608 10.601929 58.766556 -13.969635 88.41995 -19.648285c20.85971 -3.9946594 42.207 -4.932556 63.15747 -8.419952" fill-rule="evenodd"/><path fill="#000000" fill-opacity="0.0" d="m450.52756 202.10498c-5.0466003 58.00757 -17.347778 115.15643 -26.666656 172.63254" fill-rule="evenodd"/><path stroke="#000000" stroke-width="16.0" stroke-linejoin="round" stroke-linecap="butt" d="m450.52756 202.10498c-5.0466003 58.00757 -17.347778 115.15643 -26.666656 172.63254" fill-rule="evenodd"/><path fill="#000000" fill-opacity="0.0" d="m397.1942 203.50919c20.878296 6.959427 44.046112 0.8122864 65.96326 2.8057709c25.090088 2.2820892 50.451965 8.375549 72.98163 19.650925" fill-rule="evenodd"/><path stroke="#000000" stroke-width="16.0" stroke-linejoin="round" stroke-linecap="butt" d="m397.1942 203.50919c20.878296 6.959427 44.046112 0.8122864 65.96326 2.8057709c25.090088 2.2820892 50.451965 8.375549 72.98163 19.650925" fill-rule="evenodd"/></g></svg>
